<?xml version="1.0" standalone="no"?>
<!DOCTYPE svg PUBLIC "-//W3C//DTD SVG 20010904//EN"
 "http://www.w3.org/TR/2001/REC-SVG-20010904/DTD/svg10.dtd">
<svg version="1.0" xmlns="http://www.w3.org/2000/svg"
 width="512.000000pt" height="512.000000pt" viewBox="0 0 512.000000 512.000000"
 preserveAspectRatio="xMidYMid meet">
<metadata>
Created by potrace 1.14, written by Peter Selinger 2001-2017
</metadata>
<g transform="translate(0.000000,512.000000) scale(0.100000,-0.100000)"
fill="#000000" stroke="none">
<path d="M2308 5110 c-774 -70 -1456 -475 -1887 -1120 -339 -507 -481 -1140
-391 -1748 79 -541 320 -1021 705 -1407 407 -409 854 -631 1460 -727 106 -17
534 -17 640 0 337 54 587 133 851 272 136 71 312 187 416 275 l77 65 11 -43
c54 -208 149 -360 304 -483 87 -69 184 -121 289 -153 80 -24 229 -44 267 -36
40 9 64 40 64 82 0 54 -34 78 -121 86 -198 16 -365 102 -491 249 -93 110 -161
281 -162 407 0 39 6 50 58 110 145 166 249 317 342 494 139 265 218 515 272
852 17 106 17 534 0 640 -78 493 -235 866 -521 1235 -94 123 -328 352 -456
447 -348 260 -733 421 -1159 484 -152 22 -428 32 -568 19z m467 -181 c681 -70
1307 -455 1700 -1044 137 -206 271 -521 324 -760 43 -195 55 -313 55 -525 0
-234 -16 -368 -69 -576 -105 -413 -308 -767 -615 -1074 -307 -307 -661 -510
-1074 -615 -206 -52 -342 -69 -571 -69 -285 -1 -479 30 -743 116 -593 194
-1087 624 -1362 1183 -148 301 -221 576 -239 902 -37 666 193 1285 654 1762
509 526 1201 776 1940 700z"/>
<path d="M2260 4759 c-383 -47 -757 -201 -1075 -442 -102 -79 -303 -280 -382
-382 -250 -329 -402 -708 -444 -1103 -15 -144 -7 -456 15 -577 80 -442 259
-809 547 -1119 346 -373 787 -605 1294 -682 150 -23 451 -23 600 0 592 91
1081 382 1440 856 218 288 352 614 411 995 23 149 23 450 0 600 -77 507 -309
948 -682 1294 -310 288 -675 466 -1119 547 -106 19 -488 28 -605 13z m570
-184 c718 -121 1313 -612 1561 -1289 45 -123 87 -297 105 -431 19 -144 14
-455 -9 -580 -82 -434 -262 -781 -562 -1080 -303 -304 -660 -487 -1105 -567
-102 -18 -508 -18 -610 0 -438 79 -804 266 -1104 567 -505 505 -704 1246 -516
1925 96 349 266 643 517 893 260 261 568 434 930 526 65 17 154 35 198 40 44
6 94 13 110 15 65 9 395 -3 485 -19z"/>
<path d="M2382 4235 c-379 -82 -580 -511 -406 -864 54 -110 162 -215 274 -269
101 -48 163 -62 272 -62 253 0 484 165 569 406 26 76 36 231 20 316 -7 35 -31
101 -53 148 -50 104 -158 217 -255 268 -126 66 -281 87 -421 57z m258 -177
c154 -47 271 -179 301 -342 6 -32 8 -60 5 -63 -2 -3 -40 6 -83 20 -122 39
-207 52 -353 51 -139 0 -247 -17 -357 -55 -31 -10 -59 -19 -63 -19 -10 0 6 98
23 146 75 207 315 326 527 262z"/>
<path d="M1365 3200 c-345 -70 -561 -408 -475 -744 28 -112 73 -190 160 -277
130 -131 279 -187 468 -176 108 6 186 29 266 78 186 115 296 306 296 517 0
109 -14 171 -62 272 -114 239 -396 381 -653 330z m81 -247 c-74 -228 -75 -457
-2 -694 14 -46 24 -84 22 -87 -2 -2 -30 1 -62 7 -234 44 -389 259 -353 491 23
150 133 286 273 337 38 14 137 32 145 27 1 -2 -8 -38 -23 -81z"/>
<path d="M3443 3199 c-215 -36 -396 -201 -469 -429 -24 -73 -28 -204 -10 -288
49 -230 235 -421 455 -468 232 -49 461 30 609 210 88 106 132 233 132 376 0
175 -56 308 -179 431 -145 144 -331 203 -538 168z m305 -210 c165 -81 263
-268 235 -450 -28 -177 -159 -318 -330 -354 -97 -21 -93 -23 -71 48 79 251 80
500 3 727 -14 41 -25 74 -25 75 0 1 28 -2 63 -7 34 -4 90 -22 125 -39z"/>
<path d="M2425 2164 c-112 -24 -179 -52 -262 -110 -241 -171 -320 -492 -187
-764 27 -54 58 -96 113 -151 123 -123 256 -179 431 -179 449 -1 738 476 534
881 -77 153 -240 278 -411 314 -64 14 -173 18 -218 9z m-265 -629 c227 -77
487 -76 725 4 33 11 61 18 63 16 2 -2 -3 -38 -11 -80 -36 -177 -173 -307 -352
-337 -234 -39 -461 127 -493 360 -5 34 -8 62 -7 62 1 0 34 -11 75 -25z"/>
</g>
</svg>
